<svg width="118" height="14" viewBox="0 0 118 14" fill="none" xmlns="http://www.w3.org/2000/svg">
<path d="M7.984 11.016H3.792L3.12 13H0.256L4.32 1.768H7.488L11.552 13H8.656L7.984 11.016ZM7.28 8.904L5.888 4.792L4.512 8.904H7.28ZM21.6049 4.072V13H18.8689V11.784C18.5915 12.1787 18.2129 12.4987 17.7329 12.744C17.2635 12.9787 16.7409 13.096 16.1649 13.096C15.4822 13.096 14.8795 12.9467 14.3569 12.648C13.8342 12.3387 13.4289 11.896 13.1409 11.32C12.8529 10.744 12.7089 10.0667 12.7089 9.288V4.072H15.4289V8.92C15.4289 9.51733 15.5835 9.98133 15.8929 10.312C16.2022 10.6427 16.6182 10.808 17.1409 10.808C17.6742 10.808 18.0955 10.6427 18.4049 10.312C18.7142 9.98133 18.8689 9.51733 18.8689 8.92V4.072H21.6049ZM28.5461 10.68V13H27.1541C26.1621 13 25.3888 12.76 24.8341 12.28C24.2795 11.7893 24.0021 10.9947 24.0021 9.896V6.344H22.9141V4.072H24.0021V1.896H26.7381V4.072H28.5301V6.344H26.7381V9.928C26.7381 10.1947 26.8021 10.3867 26.9301 10.504C27.0581 10.6213 27.2715 10.68 27.5701 10.68H28.5461ZM34.1341 13.128C33.2595 13.128 32.4701 12.9413 31.7661 12.568C31.0728 12.1947 30.5235 11.6613 30.1181 10.968C29.7235 10.2747 29.5261 9.464 29.5261 8.536C29.5261 7.61867 29.7288 6.81333 30.1341 6.12C30.5395 5.416 31.0941 4.87733 31.7981 4.504C32.5021 4.13067 33.2915 3.944 34.1661 3.944C35.0408 3.944 35.8301 4.13067 36.5341 4.504C37.2381 4.87733 37.7928 5.416 38.1981 6.12C38.6035 6.81333 38.8061 7.61867 38.8061 8.536C38.8061 9.45333 38.5981 10.264 38.1821 10.968C37.7768 11.6613 37.2168 12.1947 36.5021 12.568C35.7981 12.9413 35.0088 13.128 34.1341 13.128ZM34.1341 10.76C34.6568 10.76 35.0995 10.568 35.4621 10.184C35.8355 9.8 36.0221 9.25067 36.0221 8.536C36.0221 7.82133 35.8408 7.272 35.4781 6.888C35.1261 6.504 34.6888 6.312 34.1661 6.312C33.6328 6.312 33.1901 6.504 32.8381 6.888C32.4861 7.26133 32.3101 7.81067 32.3101 8.536C32.3101 9.25067 32.4808 9.8 32.8221 10.184C33.1741 10.568 33.6115 10.76 34.1341 10.76ZM42.9936 5.56C43.3136 5.06933 43.7136 4.68533 44.1936 4.408C44.6736 4.12 45.207 3.976 45.7936 3.976V6.872H45.0416C44.359 6.872 43.847 7.02133 43.5056 7.32C43.1643 7.608 42.9936 8.12 42.9936 8.856V13H40.2576V4.072H42.9936V5.56ZM46.5574 8.52C46.5574 7.60267 46.728 6.79733 47.0694 6.104C47.4214 5.41067 47.896 4.87733 48.4934 4.504C49.0907 4.13067 49.7574 3.944 50.4934 3.944C51.1227 3.944 51.672 4.072 52.1414 4.328C52.6214 4.584 52.9894 4.92 53.2454 5.336V4.072H55.9814V13H53.2454V11.736C52.9787 12.152 52.6054 12.488 52.1254 12.744C51.656 13 51.1067 13.128 50.4774 13.128C49.752 13.128 49.0907 12.9413 48.4934 12.568C47.896 12.184 47.4214 11.6453 47.0694 10.952C46.728 10.248 46.5574 9.43733 46.5574 8.52ZM53.2454 8.536C53.2454 7.85333 53.0534 7.31467 52.6694 6.92C52.296 6.52533 51.8374 6.328 51.2934 6.328C50.7494 6.328 50.2854 6.52533 49.9014 6.92C49.528 7.304 49.3414 7.83733 49.3414 8.52C49.3414 9.20267 49.528 9.74667 49.9014 10.152C50.2854 10.5467 50.7494 10.744 51.2934 10.744C51.8374 10.744 52.296 10.5467 52.6694 10.152C53.0534 9.75733 53.2454 9.21867 53.2454 8.536ZM60.8074 8.52C60.8074 7.60267 60.978 6.79733 61.3194 6.104C61.6714 5.41067 62.146 4.87733 62.7434 4.504C63.3407 4.13067 64.0074 3.944 64.7434 3.944C65.33 3.944 65.8634 4.06667 66.3434 4.312C66.834 4.55733 67.218 4.888 67.4954 5.304V1.16H70.2314V13H67.4954V11.72C67.2394 12.1467 66.8714 12.488 66.3914 12.744C65.922 13 65.3727 13.128 64.7434 13.128C64.0074 13.128 63.3407 12.9413 62.7434 12.568C62.146 12.184 61.6714 11.6453 61.3194 10.952C60.978 10.248 60.8074 9.43733 60.8074 8.52ZM67.4954 8.536C67.4954 7.85333 67.3034 7.31467 66.9194 6.92C66.546 6.52533 66.0874 6.328 65.5434 6.328C64.9994 6.328 64.5354 6.52533 64.1514 6.92C63.778 7.304 63.5914 7.83733 63.5914 8.52C63.5914 9.20267 63.778 9.74667 64.1514 10.152C64.5354 10.5467 64.9994 10.744 65.5434 10.744C66.0874 10.744 66.546 10.5467 66.9194 10.152C67.3034 9.75733 67.4954 9.21867 67.4954 8.536ZM76.2748 13.128C75.4001 13.128 74.6108 12.9413 73.9068 12.568C73.2134 12.1947 72.6641 11.6613 72.2588 10.968C71.8641 10.2747 71.6668 9.464 71.6668 8.536C71.6668 7.61867 71.8694 6.81333 72.2747 6.12C72.6801 5.416 73.2348 4.87733 73.9388 4.504C74.6428 4.13067 75.4321 3.944 76.3068 3.944C77.1814 3.944 77.9708 4.13067 78.6748 4.504C79.3788 4.87733 79.9334 5.416 80.3388 6.12C80.7441 6.81333 80.9468 7.61867 80.9468 8.536C80.9468 9.45333 80.7388 10.264 80.3228 10.968C79.9174 11.6613 79.3574 12.1947 78.6428 12.568C77.9388 12.9413 77.1494 13.128 76.2748 13.128ZM76.2748 10.76C76.7974 10.76 77.2401 10.568 77.6028 10.184C77.9761 9.8 78.1628 9.25067 78.1628 8.536C78.1628 7.82133 77.9814 7.272 77.6188 6.888C77.2668 6.504 76.8294 6.312 76.3068 6.312C75.7734 6.312 75.3308 6.504 74.9788 6.888C74.6268 7.26133 74.4508 7.81067 74.4508 8.536C74.4508 9.25067 74.6214 9.8 74.9628 10.184C75.3148 10.568 75.7521 10.76 76.2748 10.76ZM98.5089 1.768V13H95.7729V6.264L93.2609 13H91.0529L88.5249 6.248V13H85.7889V1.768H89.0209L92.1729 9.544L95.2929 1.768H98.5089ZM108.892 8.392C108.892 8.648 108.876 8.91467 108.844 9.192H102.652C102.695 9.74667 102.871 10.1733 103.18 10.472C103.5 10.76 103.89 10.904 104.348 10.904C105.031 10.904 105.506 10.616 105.772 10.04H108.684C108.535 10.6267 108.263 11.1547 107.868 11.624C107.484 12.0933 106.999 12.4613 106.412 12.728C105.826 12.9947 105.17 13.128 104.444 13.128C103.57 13.128 102.791 12.9413 102.108 12.568C101.426 12.1947 100.892 11.6613 100.508 10.968C100.124 10.2747 99.9324 9.464 99.9324 8.536C99.9324 7.608 100.119 6.79733 100.492 6.104C100.876 5.41067 101.41 4.87733 102.092 4.504C102.775 4.13067 103.559 3.944 104.444 3.944C105.308 3.944 106.076 4.12533 106.748 4.488C107.42 4.85067 107.943 5.368 108.316 6.04C108.7 6.712 108.892 7.496 108.892 8.392ZM106.092 7.672C106.092 7.20267 105.932 6.82933 105.612 6.552C105.292 6.27467 104.892 6.136 104.412 6.136C103.954 6.136 103.564 6.26933 103.244 6.536C102.935 6.80267 102.743 7.18133 102.668 7.672H106.092ZM104.412 2.088L101.932 3.4V1.512L104.412 0.247999L106.892 1.512V3.4L104.412 2.088ZM113.968 13.128C113.189 13.128 112.496 12.9947 111.888 12.728C111.28 12.4613 110.8 12.0987 110.448 11.64C110.096 11.1707 109.898 10.648 109.856 10.072H112.56C112.592 10.3813 112.736 10.632 112.992 10.824C113.248 11.016 113.562 11.112 113.936 11.112C114.277 11.112 114.538 11.048 114.72 10.92C114.912 10.7813 115.008 10.6053 115.008 10.392C115.008 10.136 114.874 9.94933 114.608 9.832C114.341 9.704 113.909 9.56533 113.312 9.416C112.672 9.26667 112.138 9.112 111.712 8.952C111.285 8.78133 110.917 8.52 110.608 8.168C110.298 7.80533 110.144 7.32 110.144 6.712C110.144 6.2 110.282 5.736 110.56 5.32C110.848 4.89333 111.264 4.55733 111.808 4.312C112.362 4.06667 113.018 3.944 113.776 3.944C114.896 3.944 115.776 4.22133 116.416 4.776C117.066 5.33067 117.44 6.06667 117.536 6.984H115.008C114.965 6.67467 114.826 6.42933 114.592 6.248C114.368 6.06667 114.069 5.976 113.696 5.976C113.376 5.976 113.13 6.04 112.96 6.168C112.789 6.28533 112.704 6.45067 112.704 6.664C112.704 6.92 112.837 7.112 113.104 7.24C113.381 7.368 113.808 7.496 114.384 7.624C115.045 7.79467 115.584 7.96533 116 8.136C116.416 8.296 116.778 8.56267 117.088 8.936C117.408 9.29867 117.573 9.78933 117.584 10.408C117.584 10.9307 117.434 11.4 117.136 11.816C116.848 12.2213 116.426 12.5413 115.872 12.776C115.328 13.0107 114.693 13.128 113.968 13.128Z" fill="#EB9B00"/>
</svg>
